<svg width="700pt" height="700pt" viewBox="0 0 700 700" xmlns="http://www.w3.org/2000/svg"><path d="M568.46 404.84c33.789-38.484 51.582-83.949 51.582-132.08 0-60.633-28.555-117.42-80.406-159.9-50.816-41.625-118.16-64.543-189.63-64.543s-138.82 22.926-189.63 64.547c-51.852 42.477-80.41 99.258-80.41 159.9s28.555 117.42 80.406 159.9c50.816 41.621 118.16 64.543 189.63 64.543 37.621 0 73.898-6.262 107.96-18.617 39.09 20.023 83.816 31.434 129.9 33.078.219.004.43.012.64.012a17.929 17.929 0 0 0 15.012-27.723c-15.75-24.145-27.52-50.723-35.06-79.117zm-100.61 38.406a17.948 17.948 0 0 0-8.645-2.223c-2.222 0-4.456.41-6.578 1.25-32.102 12.656-66.633 19.078-102.63 19.078-129.12 0-234.18-84.602-234.18-188.59s105.05-188.59 234.18-188.59 234.18 84.602 234.18 188.59c0 41.84-16.738 81.496-48.406 114.69a17.93 17.93 0 0 0-4.496 16.406c5.567 24.113 13.801 47.16 24.57 68.852-31.418-4.808-61.37-14.797-88-29.46zm34.395-170.48c0 9.902-8.027 17.926-17.926 17.926h-17.051c-9.902 0-17.926-8.027-17.926-17.926 0-9.902 8.027-17.926 17.926-17.926h17.051c9.902 0 17.926 8.027 17.926 17.926zm-251.58 0c0 9.902-8.027 17.926-17.926 17.926h-17.051c-9.902 0-17.926-8.027-17.926-17.926 0-9.902 8.027-17.926 17.926-17.926h17.051c9.895 0 17.926 8.027 17.926 17.926zm125.79 0c0 9.902-8.027 17.926-17.926 17.926h-17.051c-9.902 0-17.926-8.027-17.926-17.926 0-9.902 8.027-17.926 17.926-17.926h17.051c9.902 0 17.926 8.027 17.926 17.926z"/></svg>