<svg width="700pt" height="700pt" viewBox="0 0 700 700" xmlns="http://www.w3.org/2000/svg"><path d="M422.24 104.72c-25.762 0-50.961 8.398-72.238 25.199-20.719-16.801-46.48-25.199-72.238-25.199-29.68 0-59.359 11.199-81.762 33.602-42 42-44.801 107.52-8.96 152.88 2.8 3.36 5.6 7.281 8.96 10.641l154 136.64 153.44-137.2c3.36-3.36 6.16-6.719 8.96-10.641 16.239-20.719 24.642-45.922 24.642-71.121 0-29.68-11.2-59.359-33.602-81.762-22.402-21.836-52.082-33.598-81.203-33.039zm77.281 176.4c-2.238 2.8-4.48 5.602-7.281 8.398L350 416.078l-142.24-126.56c-2.801-2.8-5.04-5.601-7.281-8.398-30.801-39.199-27.441-95.762 7.84-131.04 18.48-18.48 43.68-29.121 70-29.121 22.397 0 44.237 7.84 61.601 21.281 2.801 2.238 6.72 3.922 10.641 3.922s7.282-1.121 10.641-3.922c17.36-14 39.2-21.281 61.602-21.281 26.32 0 50.961 10.078 70 29.121 18.48 18.48 29.121 43.68 29.121 70-1.125 21.84-8.406 43.68-22.406 61.039z"/></svg>