<svg width="700pt" height="700pt" viewBox="0 0 700 700" xmlns="http://www.w3.org/2000/svg"><path d="M629.35 334.13a45.953 45.953 0 0 0-1.746-7.082l-30.473-91.465v-.004a31.056 31.056 0 0 0-14-16.949 355.83 355.83 0 0 0-6.348-21.465c38.266-21.652 49.645-68.629 52.996-95.836a27.814 27.814 0 0 0-21.926-30.8 212.297 212.297 0 0 0-77.363-.177 208.545 208.545 0 0 0 23.102-43.672 19.266 19.266 0 0 0-2.625-20.086 18.774 18.774 0 0 0-8.5-5.707 18.785 18.785 0 0 0-10.23-.414 246.87 246.87 0 0 0-78.906 31.031A191.601 191.601 0 0 0 350.001-.004a191.675 191.675 0 0 0-103.39 31.547A245.909 245.909 0 0 0 168.213.621 19.13 19.13 0 0 0 157.74.9a19.133 19.133 0 0 0-8.753 5.754 19.106 19.106 0 0 0-4.211 9.566 19.122 19.122 0 0 0 1.457 10.348 210.016 210.016 0 0 0 23.164 43.867 212.22 212.22 0 0 0-77.27.195A27.87 27.87 0 0 0 75.13 81.734a27.855 27.855 0 0 0-4.938 19.695c3.352 27.188 14.738 74.164 53.004 95.816a316.619 316.619 0 0 0-6.348 21.465v.004a31.095 31.095 0 0 0-14 16.996l-30.46 91.383a46.501 46.501 0 0 0-1.747 7.09v.133c-.422 2.484-.636 5-.644 7.523v14.195a46.514 46.514 0 0 0 8.746 27.188 46.495 46.495 0 0 0 22.988 16.95 17.994 17.994 0 0 0 16.305-2.454 18.72 18.72 0 0 0 5.691-6.469 45.985 45.985 0 0 0 5.602-1.382 243.338 243.338 0 0 0 32.547 52.445l-12.133-7.149h-.004a18.811 18.811 0 0 0-15.512-1.617 18.462 18.462 0 0 0-11.199 10.438 84.226 84.226 0 0 0-3.629 53.402 83.226 83.226 0 0 0 65.976 61.246 87.222 87.222 0 0 0 15.29 1.363 83.428 83.428 0 0 0 72.034-40.992 240.233 240.233 0 0 0 77.121 12.898h.281-.004a240.281 240.281 0 0 0 77.121-12.898 83.434 83.434 0 0 0 72.11 40.992 87.472 87.472 0 0 0 15.343-1.363 83.26 83.26 0 0 0 41.98-20.934 83.225 83.225 0 0 0 23.988-40.312 84.21 84.21 0 0 0-3.64-53.414 18.446 18.446 0 0 0-11.2-10.426 18.833 18.833 0 0 0-15.52 1.625l-12.132 7.14a243.631 243.631 0 0 0 32.543-52.444 45.965 45.965 0 0 0 5.601 1.382 18.722 18.722 0 0 0 5.692 6.47 18.09 18.09 0 0 0 10.527 3.405c1.973 0 3.93-.316 5.797-.933a46.531 46.531 0 0 0 22.965-16.97 46.527 46.527 0 0 0 8.722-27.187v-14.195c0-2.504-.207-5-.617-7.47zm-23.996-14.832a102.187 102.187 0 0 0-22.02-2.172 94.036 94.036 0 0 0-28 3.735v-74.352a12.22 12.22 0 0 1 12.3-13.383 12.323 12.323 0 0 1 11.802 8.457zm-50.398-173.27c-4.191-7.969-8.688-15.867-13.504-23.473l-.004.004a101.94 101.94 0 0 1 29.652-.375 51.33 51.33 0 0 1-16.184 23.883zm7.71 68.844-.003.004a31.676 31.676 0 0 0-18.797 11.047 31.676 31.676 0 0 0-7.195 20.582v5.2a99.659 99.659 0 0 1-28-69.712 101.423 101.423 0 0 1 15.23-53.44 315.011 315.011 0 0 1 38.723 86.358zm41.478-126-.004.004a9.336 9.336 0 0 1 7.18 10.266c-2.801 22.82-11.945 61.676-41.066 80.145a340.038 340.038 0 0 0-7.02-16.438 68.144 68.144 0 0 0 25.648-34.988 17.54 17.54 0 0 0-1.469-15.27 18.87 18.87 0 0 0-13.895-8.95 114.447 114.447 0 0 0-43.289 2.321 309.363 309.363 0 0 0-10.809-14.207v.004a204.23 204.23 0 0 1 84.684-2.828zm-68.566-70.027 1.094-.29-.282 1.103a156.758 156.758 0 0 1-32.836 53.816 274.406 274.406 0 0 0-33.3-30.184 218.944 218.944 0 0 1 65.323-24.445zm-185.57 177.15c60.715 0 112 29.922 112 65.332s-51.285 65.332-112 65.332-112-29.922-112-65.332 51.332-65.332 112-65.332zm-9.332-18.379c-44.09 1.922-81.434 17.277-102.61 39.965l-.004.004a143.678 143.678 0 0 0-90.113-34.387 274.325 274.325 0 0 1 116.29-139.56 184.247 184.247 0 0 0 60.035 19.82 18.798 18.798 0 0 1 16.398 18.48zm-211.76-55.449a101.394 101.394 0 0 1 29.69.422 343.208 343.208 0 0 0-13.515 23.473 51.38 51.38 0 0 1-16.176-23.895zm34.273-103.44 1.203.16c22.945 4.61 45 12.86 65.336 24.445a274.367 274.367 0 0 0-33.293 30.191 156.852 156.852 0 0 1-32.824-53.816zm-74.453 80.52a9.334 9.334 0 0 1 7.18-10.312 204.38 204.38 0 0 1 84.66 2.8c-3.735 4.669-7.328 9.333-10.79 14.189a113.547 113.547 0 0 0-43.343-2.309 18.866 18.866 0 0 0-13.848 8.942 17.472 17.472 0 0 0-1.496 15.176 68.34 68.34 0 0 0 25.676 35.113 347.648 347.648 0 0 0-7.02 16.438c-29.082-18.426-38.207-57.27-41.02-80.035zm31.828 142.36a12.333 12.333 0 0 1 11.809-8.484c.601-.004 1.203.03 1.8.109a13.14 13.14 0 0 1 10.5 13.273v74.34a94.294 94.294 0 0 0-28-3.734c-7.398-.063-14.78.68-22.02 2.214zm-31.891 114.43v-14.195c0-.344.066-.68.086-1.016l-.004-.004a62.698 62.698 0 0 1 27.918-5.03 63.29 63.29 0 0 1 28 5.03v4.305a28.016 28.016 0 0 1-18.668 26.274v-7.61c0-5.152-4.18-9.331-9.332-9.331-5.156 0-9.336 4.18-9.336 9.332v18.527a27.813 27.813 0 0 1-13.523-10.164 27.802 27.802 0 0 1-5.14-16.117zm156.98 167.36a65.257 65.257 0 0 1-54.566 17.367 65.26 65.26 0 0 1-47.246-32.352 65.258 65.258 0 0 1-3.543-57.152l36.23 21.355c4.27 2.52 9.36 3.238 14.156 2s8.906-4.332 11.422-8.602 3.226-9.359 1.984-14.156l-10.695-40.777a64.64 64.64 0 0 1 29.492 3.528 65.285 65.285 0 0 1 41.758 48.039 65.29 65.29 0 0 1-18.992 60.75zm314.07-72.277a65.332 65.332 0 1 1-121.491 48.05 65.345 65.345 0 0 1 1.746-50.422 65.352 65.352 0 0 1 37.148-34.141 64.732 64.732 0 0 1 22.035-3.938c2.434 0 4.863.141 7.281.418l-10.52 40.758a18.65 18.65 0 0 0 1.992 14.152 18.661 18.661 0 0 0 25.57 6.598zm-40.328-15.484 5.125-19.863v.004a18.84 18.84 0 0 0-2.734-15.391 18.413 18.413 0 0 0-13.066-7.86 83.3 83.3 0 0 0-37.903 4.528 83.714 83.714 0 0 0-46.934 42.027 83.74 83.74 0 0 0-4.355 62.852 224.651 224.651 0 0 1-138.97 0 83.732 83.732 0 0 0-4.371-62.863 83.734 83.734 0 0 0-46.961-42.016 83.133 83.133 0 0 0-37.887-4.527 18.411 18.411 0 0 0-13.066 7.859 18.824 18.824 0 0 0-2.735 15.39l5.125 19.853a224.527 224.527 0 0 1-34.609-54.246 46.58 46.58 0 0 0 17.285-36.25v-98.617a31.67 31.67 0 0 0-25.953-31.594c1.25-4.414 2.406-8.922 3.809-13.2 15.215.087 56.719 3.192 85.727 31.146l-.004.004a59.194 59.194 0 0 0-7.578 28.465c0 47.105 57.39 84 130.67 84s130.67-36.895 130.67-84c0-45.07-52.602-80.715-121.33-83.711l-.004-95.676a37.328 37.328 0 0 0-32.355-36.957 165.101 165.101 0 0 1-41.758-11.93 165.441 165.441 0 0 1 64.78-14.391c53.2 0 116.29 32.332 162.4 93.492a119.861 119.861 0 0 0-22.397 69.84 117.426 117.426 0 0 0 46.668 94.434v68.695a46.577 46.577 0 0 0 17.332 36.25 224.74 224.74 0 0 1-34.61 54.254zm91.94-79.594a27.658 27.658 0 0 1-5.108 16.141 27.657 27.657 0 0 1-13.555 10.141v-18.527c0-5.152-4.18-9.332-9.336-9.332-5.153 0-9.332 4.18-9.332 9.332v7.61a28.018 28.018 0 0 1-18.668-26.275v-4.277a62.953 62.953 0 0 1 28-5.058 62.7 62.7 0 0 1 27.918 5.03c0 .337.086.673.086 1.016z"/><path d="M303.33 298.67c15.707 0 28-16.398 28-37.332s-12.293-37.332-28-37.332-28 16.398-28 37.332 12.293 37.332 28 37.332zm0-56c3.809 0 9.332 7.27 9.332 18.668 0 11.395-5.523 18.668-9.332 18.668-3.809 0-9.332-7.27-9.332-18.668s5.523-18.668 9.332-18.668zM396.67 298.67c15.707 0 28-16.398 28-37.332s-12.293-37.332-28-37.332-28 16.398-28 37.332 12.289 37.332 28 37.332zm0-56c3.809 0 9.332 7.27 9.332 18.668 0 11.395-5.523 18.668-9.332 18.668-3.809 0-9.332-7.27-9.332-18.668-.004-11.398 5.523-18.668 9.332-18.668zM401.85 360.49a111.577 111.577 0 0 1-103.7 0 9.338 9.338 0 0 0-12.574 4.172 9.342 9.342 0 0 0-.477 7.16 9.322 9.322 0 0 0 4.746 5.383 151.16 151.16 0 0 0 17.246 7.187l-11.555 27.516v-.004a28.012 28.012 0 0 0 1.325 21.371 28.007 28.007 0 0 0 16.039 14.188 28.028 28.028 0 0 0 21.37-1.293 27.478 27.478 0 0 0 14-15.438l16.802-39.656v-.003a138.943 138.943 0 0 0 45.07-13.867 9.329 9.329 0 0 0 4.742-5.383 9.307 9.307 0 0 0-.477-7.16 9.314 9.314 0 0 0-5.418-4.704 9.32 9.32 0 0 0-7.156.532zm-71.027 63.551a9.342 9.342 0 0 1-4.75 5.356 9.117 9.117 0 0 1-7.105.437 9.244 9.244 0 0 1-5.356-4.723 9.039 9.039 0 0 1-.645-6.53l12.312-29.278v-.004a125.649 125.649 0 0 0 19.29 2.363zM266 121.33a29.8 29.8 0 0 0-15.52 3.5 29.771 29.771 0 0 0-11.5 10.996c-2.207 4.465-.445 9.875 3.965 12.188a9.478 9.478 0 0 0 12.594-3.563 11.533 11.533 0 0 1 10.46-4.453 11.783 11.783 0 0 1 10.313 4.172c2.304 4.614 7.914 6.485 12.527 4.18 4.613-2.3 6.484-7.91 4.18-12.523a29.77 29.77 0 0 0-11.5-10.996 29.799 29.799 0 0 0-15.52-3.5zM434 121.33a29.783 29.783 0 0 0-15.547 3.488 29.773 29.773 0 0 0-11.52 11.008c-2.207 4.465-.445 9.875 3.965 12.188a9.478 9.478 0 0 0 12.594-3.562A11.539 11.539 0 0 1 434 139.999a11.785 11.785 0 0 1 10.266 4.172c2.304 4.613 7.914 6.484 12.527 4.18 4.613-2.302 6.484-7.91 4.18-12.524a29.731 29.731 0 0 0-11.48-10.98A29.75 29.75 0 0 0 434 121.332z"/></svg>