<svg width="700pt" height="700pt" viewBox="0 0 700 700" xmlns="http://www.w3.org/2000/svg"><path d="M599.37 218.78a14.831 14.831 0 0 0-12.102-9.96l-155.14-20.677-70.91-139.52c-2.566-5.039-7.707-8.238-13.41-8.121a14.835 14.835 0 0 0-13.211 8.434l-67.605 141.15-154.6 24.332a14.854 14.854 0 0 0-11.867 10.242 14.84 14.84 0 0 0 3.938 15.176l113.35 107.91-24.633 154.55a14.846 14.846 0 0 0 21.723 15.398l137.66-74.457 139.37 71.188a14.852 14.852 0 0 0 21.36-15.906l-28.274-153.93 110.77-110.56a14.83 14.83 0 0 0 3.578-15.259zm-425.4 46.238c8.406-4.73 17.098-9.066 25.934-13.137-4.227 8.586-8.457 17.168-12.68 25.754zm76.039-42.195 3.035-.477c-1.316 1.16-2.648 2.301-3.96 3.465.402-1.008.706-1.996.925-2.988zm118.66-94.012c-2.52.648-4.945 1.727-7.106 3.41-3.058 2.38-6.074 4.805-9.117 7.203 4.664-5.086 9.22-10.297 13.707-15.562zm17.305 34.035 13.047 25.672c-18.762 11.027-36.988 23.078-54.773 35.855 13.52-20.77 27.297-41.367 41.727-61.527zm60.219 57.125c-25.066 20.066-49.234 40.969-72.738 62.535 5.234-6.43 10.527-12.809 15.938-19.078 13.484-15.641 28.727-29.074 41.188-45.535zm17.5 49.762c6.7-8.68 13.469-17.305 20.332-25.844 4.898-6.094 6.262-12.48 5.336-18.168l14.145 1.887c-13.152 14.109-26.402 28.172-39.812 42.125zm-216.63 83.172c4.977.05 9.984-1.496 14.129-5.234 11.469-10.348 23.152-20.238 34.961-29.871-19.918 28.023-38.852 56.71-57.172 85.793zm79.844 34.176c-9.7 13.066-19.355 26.156-28.855 39.344-3.602 5-4.367 9.941-3.266 14.312l-45.008 24.344c24.691-27.016 50.586-52.844 77.13-78zm64.391 9.207c-3.836 7.887-6.898 15.883-8.691 23.984-.352 1.598-.45 3.188-.422 4.762l-14.47-7.39a2729.247 2729.247 0 0 0 23.583-21.356zm32.148 40.246a206.981 206.981 0 0 1-3.113 7.242c-.094.203-.153.414-.242.617l-5.086-2.597a738.52 738.52 0 0 1 8.441-5.262zm-75.055-347.64 2.32 4.559a21.055 21.055 0 0 0-3.05 3.304c-3 4.055-5.942 8.153-8.899 12.242zm-166.05 144.58a209.326 209.326 0 0 0-20.363 20.121l-15.25-14.516zm32.695 70.637a2497.76 2497.76 0 0 1 67.973-60.109c-17.121 25.207-34.395 50.293-52.586 74.762zm259.57 168.13c.04-.012.078-.016.117-.023 1.2-.282 2.301-.649 3.356-1.059l.582 3.152zm74.371-233.42c.117-.172.234-.34.352-.516.968-1.422 1.644-2.855 2.18-4.297l2.023.27z"/></svg>